<?xml version="1.0" encoding="UTF-8"?>
<svg xmlns="http://www.w3.org/2000/svg" xmlns:xlink="http://www.w3.org/1999/xlink" width="24px" height="24px" viewBox="0 0 24 24" version="1.1">
<g id="surface1">
<path style=" stroke:none;fill-rule:nonzero;fill:rgb(0%,0%,0%);fill-opacity:1;" d="M 4.804688 2.253906 C 3.539062 2.371094 2.691406 3.171875 2.445312 4.476562 C 2.40625 4.6875 2.402344 5.019531 2.402344 10.523438 L 2.402344 16.347656 L 2.457031 16.636719 C 2.597656 17.433594 2.960938 18.050781 3.527344 18.476562 C 3.886719 18.742188 4.355469 18.933594 4.808594 18.988281 L 5.035156 19.015625 L 5.042969 20.445312 L 5.050781 21.878906 L 5.109375 21.992188 C 5.1875 22.144531 5.332031 22.273438 5.5 22.335938 C 5.6875 22.40625 5.933594 22.394531 6.105469 22.304688 C 6.230469 22.242188 6.675781 21.894531 7.738281 21.035156 C 9.019531 19.992188 9.179688 19.867188 9.574219 19.550781 C 9.792969 19.378906 10.023438 19.191406 10.085938 19.144531 L 10.203125 19.054688 L 14.25 19.054688 C 16.941406 19.054688 18.382812 19.046875 18.554688 19.027344 C 19.363281 18.949219 19.953125 18.699219 20.457031 18.226562 C 20.957031 17.753906 21.234375 17.144531 21.304688 16.378906 C 21.324219 16.171875 21.328125 14.476562 21.324219 10.359375 L 21.3125 4.628906 L 21.265625 4.410156 C 21.160156 3.96875 21.007812 3.59375 20.808594 3.300781 C 20.445312 2.765625 19.835938 2.398438 19.097656 2.269531 C 18.960938 2.246094 17.503906 2.238281 11.964844 2.234375 C 8.136719 2.234375 4.914062 2.242188 4.804688 2.253906 Z M 19.035156 3.777344 C 19.21875 3.816406 19.398438 3.910156 19.546875 4.046875 C 19.773438 4.253906 19.882812 4.515625 19.921875 4.929688 C 19.941406 5.105469 19.945312 6.988281 19.941406 10.78125 C 19.933594 15.964844 19.929688 16.382812 19.890625 16.535156 C 19.785156 16.976562 19.507812 17.292969 19.089844 17.449219 C 18.742188 17.582031 18.863281 17.578125 14.320312 17.578125 C 11.898438 17.578125 10.074219 17.585938 9.988281 17.601562 C 9.707031 17.640625 9.675781 17.664062 8.074219 18.980469 C 7.675781 19.308594 7.128906 19.761719 6.863281 19.984375 L 6.378906 20.390625 L 6.371094 19.203125 C 6.363281 18.03125 6.363281 18.007812 6.3125 17.917969 C 6.242188 17.792969 6.152344 17.710938 6.011719 17.644531 C 5.910156 17.597656 5.835938 17.59375 5.4375 17.574219 C 5.101562 17.5625 4.933594 17.546875 4.796875 17.511719 C 4.230469 17.363281 3.894531 16.976562 3.816406 16.382812 C 3.792969 16.1875 3.789062 8.140625 3.8125 6.128906 C 3.824219 4.8125 3.839844 4.621094 3.960938 4.363281 C 4.042969 4.1875 4.246094 3.96875 4.402344 3.882812 C 4.660156 3.742188 4.136719 3.753906 11.839844 3.753906 C 16.960938 3.75 18.945312 3.757812 19.035156 3.777344 Z M 19.035156 3.777344 "/>
<path style=" stroke:none;fill-rule:nonzero;fill:rgb(0%,0%,0%);fill-opacity:1;" d="M 14.902344 4.457031 C 14.644531 4.484375 14.222656 4.597656 13.984375 4.699219 C 13.769531 4.789062 13.457031 4.976562 13.246094 5.140625 C 13.117188 5.242188 11.476562 6.8125 10.699219 7.578125 L 10.277344 7.996094 L 10.757812 7.980469 C 11.269531 7.964844 11.800781 7.996094 12.0625 8.046875 C 12.195312 8.078125 12.230469 8.078125 12.269531 8.050781 C 12.296875 8.035156 12.554688 7.789062 12.84375 7.511719 C 13.597656 6.78125 13.976562 6.429688 14.140625 6.308594 C 14.335938 6.167969 14.621094 6.035156 14.875 5.972656 C 15.160156 5.902344 15.613281 5.902344 15.875 5.972656 C 16.421875 6.117188 16.925781 6.5625 17.152344 7.101562 C 17.292969 7.429688 17.339844 7.742188 17.296875 8.097656 C 17.234375 8.605469 17.074219 8.925781 16.640625 9.382812 C 16.449219 9.589844 15.226562 10.753906 14.824219 11.117188 C 14.464844 11.445312 14.382812 11.503906 14.125 11.625 C 13.660156 11.84375 13.128906 11.84375 12.691406 11.625 C 12.425781 11.492188 12.242188 11.347656 11.839844 10.945312 C 11.414062 10.515625 11.324219 10.464844 11.015625 10.464844 C 10.847656 10.464844 10.796875 10.472656 10.703125 10.523438 C 10.558594 10.597656 10.425781 10.726562 10.355469 10.855469 C 10.28125 11 10.28125 11.246094 10.355469 11.386719 C 10.453125 11.574219 11.257812 12.355469 11.664062 12.660156 C 12.273438 13.117188 13.003906 13.332031 13.730469 13.265625 C 14.460938 13.199219 14.957031 12.945312 15.667969 12.277344 C 16.28125 11.703125 17.742188 10.285156 17.910156 10.097656 C 18.34375 9.617188 18.582031 9.171875 18.707031 8.613281 C 18.777344 8.304688 18.792969 7.707031 18.738281 7.371094 C 18.640625 6.734375 18.292969 6.039062 17.828125 5.558594 C 17.425781 5.140625 16.871094 4.785156 16.351562 4.601562 C 15.957031 4.46875 15.320312 4.402344 14.902344 4.457031 Z M 14.902344 4.457031 "/>
<path style=" stroke:none;fill-rule:nonzero;fill:rgb(0%,0%,0%);fill-opacity:1;" d="M 10.921875 8.371094 C 10.097656 8.429688 9.554688 8.703125 8.746094 9.476562 C 8.59375 9.625 8.113281 10.078125 7.675781 10.488281 C 6.554688 11.546875 6.226562 11.878906 6.054688 12.128906 C 5.792969 12.515625 5.625 12.910156 5.527344 13.367188 C 5.464844 13.660156 5.453125 14.296875 5.503906 14.578125 C 5.582031 15 5.777344 15.472656 6.03125 15.839844 C 6.191406 16.074219 6.597656 16.492188 6.839844 16.675781 C 7.472656 17.148438 8.28125 17.371094 9.136719 17.296875 C 9.921875 17.234375 10.480469 17.011719 11.050781 16.546875 C 11.140625 16.472656 11.832031 15.800781 12.582031 15.054688 L 13.953125 13.699219 L 13.378906 13.683594 C 13.066406 13.675781 12.6875 13.648438 12.539062 13.628906 C 12.390625 13.609375 12.214844 13.585938 12.148438 13.578125 L 12.023438 13.5625 L 11.40625 14.171875 C 10.171875 15.390625 9.90625 15.617188 9.550781 15.757812 C 9.082031 15.945312 8.472656 15.941406 8.042969 15.746094 C 7.648438 15.570312 7.222656 15.132812 7.039062 14.722656 C 6.847656 14.289062 6.839844 13.625 7.023438 13.261719 C 7.085938 13.132812 7.296875 12.863281 7.503906 12.644531 C 7.8125 12.316406 9.53125 10.683594 9.90625 10.363281 C 10.417969 9.921875 10.761719 9.78125 11.261719 9.804688 C 11.757812 9.824219 12.050781 9.988281 12.632812 10.566406 C 13.046875 10.980469 13.144531 11.042969 13.394531 11.058594 C 13.625 11.070312 13.796875 11.003906 13.96875 10.832031 C 14.128906 10.667969 14.1875 10.507812 14.175781 10.269531 C 14.164062 10.058594 14.097656 9.929688 13.886719 9.707031 C 13.648438 9.453125 13.1875 9.042969 12.96875 8.890625 C 12.402344 8.492188 11.691406 8.3125 10.921875 8.371094 Z M 10.921875 8.371094 "/>
</g>
</svg>
